<?xml version="1.0" standalone="no"?>
<!DOCTYPE svg PUBLIC "-//W3C//DTD SVG 20010904//EN"
 "http://www.w3.org/TR/2001/REC-SVG-20010904/DTD/svg10.dtd">
<svg version="1.0" xmlns="http://www.w3.org/2000/svg"
 width="689.000000pt" height="689.000000pt" viewBox="0 0 689.000000 689.000000"
 preserveAspectRatio="xMidYMid meet">
<metadata>
Created by potrace 1.11, written by Peter Selinger 2001-2013
</metadata>
<g transform="translate(0.000000,689.000000) scale(0.100000,-0.100000)"
fill="#000000" stroke="none">
<path d="M2849 6879 c-82 -7 -173 -32 -297 -80 -42 -17 -81 -32 -87 -33 -5 -2
-17 -6 -25 -9 -47 -17 -90 -29 -125 -33 -98 -11 -119 -16 -207 -45 -163 -54
-275 -110 -363 -179 -33 -26 -84 -60 -113 -76 -36 -20 -72 -51 -110 -99 -81
-100 -77 -97 -197 -160 -204 -107 -230 -129 -323 -254 -79 -107 -87 -116 -177
-206 -151 -152 -202 -219 -238 -315 -13 -36 -34 -85 -45 -110 -30 -66 -59
-159 -67 -210 -12 -82 -72 -241 -175 -465 -15 -33 -42 -92 -59 -132 l-31 -72
22 -36 21 -37 -52 -100 -52 -99 36 -84 37 -85 -32 -67 c-25 -52 -33 -84 -36
-138 -8 -202 -15 -344 -19 -380 -2 -22 -7 -69 -10 -105 -3 -36 -8 -83 -11
-106 -4 -33 3 -59 36 -134 68 -155 82 -239 65 -385 -5 -38 -1 -52 23 -88 62
-91 102 -170 147 -288 82 -220 198 -430 376 -680 105 -149 141 -187 310 -331
145 -123 278 -261 320 -333 16 -27 38 -78 48 -112 18 -54 23 -80 37 -173 11
-67 18 -186 17 -290 0 -124 -17 -196 -68 -288 -14 -25 -23 -48 -20 -51 6 -5
2827 -4 3217 2 122 2 192 7 199 14 6 6 26 46 44 90 18 43 56 128 85 188 28 61
77 171 107 245 82 202 104 242 144 262 39 20 36 19 279 53 193 26 210 29 300
46 30 6 69 13 85 15 117 19 350 116 407 169 28 26 43 68 52 140 19 159 26 657
13 865 -6 104 -6 105 27 175 19 39 39 94 46 123 8 34 27 72 56 109 24 31 44
66 44 78 0 12 -18 58 -40 103 -22 44 -40 85 -40 91 0 5 19 25 41 43 75 60 91
80 84 107 -4 14 -26 76 -51 137 -24 62 -41 119 -38 127 6 17 94 58 172 81 71
20 121 52 128 81 9 34 -2 93 -31 182 -55 162 -117 253 -323 473 -64 69 -140
150 -168 180 -27 30 -65 71 -83 90 -43 47 -64 90 -91 185 -53 190 -117 351
-174 439 -91 141 -187 332 -182 362 19 103 20 97 -32 175 -27 41 -86 146 -131
234 -136 264 -237 405 -413 577 -143 141 -300 232 -623 363 -191 78 -442 149
-514 145 -80 -3 -93 -1 -156 24 -43 17 -92 28 -141 31 -42 2 -81 9 -88 14 -10
8 -57 14 -236 26 -25 2 -76 10 -115 19 -73 15 -267 18 -416 5z"/>
</g>
</svg>
